<svg id="visual" viewBox="0 0 500 50" width="500" height="50" xmlns="http://www.w3.org/2000/svg" xmlns:xlink="http://www.w3.org/1999/xlink" version="1.1"><path d="M0 18L10.5 17.3C21 16.7 42 15.3 62.8 14.3C83.7 13.3 104.3 12.7 125.2 12C146 11.3 167 10.7 187.8 10.8C208.7 11 229.3 12 250.2 13.5C271 15 292 17 312.8 18C333.7 19 354.3 19 375.2 19.2C396 19.3 417 19.7 437.8 19.8C458.7 20 479.3 20 489.7 20L500 20L500 0L489.7 0C479.3 0 458.7 0 437.8 0C417 0 396 0 375.2 0C354.3 0 333.7 0 312.8 0C292 0 271 0 250.2 0C229.3 0 208.7 0 187.8 0C167 0 146 0 125.2 0C104.3 0 83.7 0 62.8 0C42 0 21 0 10.5 0L0 0Z" fill="#3ee0eb" stroke-linecap="round" stroke-linejoin="miter"></path></svg>