<svg id="visual" viewBox="0 0 500 50" width="500" height="50" xmlns="http://www.w3.org/2000/svg" xmlns:xlink="http://www.w3.org/1999/xlink" version="1.1"><path d="M0 15L9.3 15.7C18.7 16.3 37.3 17.7 55.8 18.8C74.3 20 92.7 21 111.2 19.5C129.7 18 148.3 14 166.8 12.8C185.3 11.7 203.7 13.3 222.2 14.2C240.7 15 259.3 15 277.8 15C296.3 15 314.7 15 333.2 16C351.7 17 370.3 19 388.8 19.2C407.3 19.3 425.7 17.7 444.2 15.7C462.7 13.7 481.3 11.3 490.7 10.2L500 9L500 0L490.7 0C481.3 0 462.7 0 444.2 0C425.7 0 407.3 0 388.8 0C370.3 0 351.7 0 333.2 0C314.7 0 296.3 0 277.8 0C259.3 0 240.7 0 222.2 0C203.7 0 185.3 0 166.8 0C148.3 0 129.7 0 111.2 0C92.7 0 74.3 0 55.8 0C37.3 0 18.7 0 9.3 0L0 0Z" fill="#3acbc7" stroke-linecap="round" stroke-linejoin="miter"></path></svg>