<svg id="visual" viewBox="0 0 500 50" width="500" height="50" xmlns="http://www.w3.org/2000/svg" xmlns:xlink="http://www.w3.org/1999/xlink" version="1.1"><path d="M0 20L9.3 18.8C18.7 17.7 37.3 15.3 55.8 15.7C74.3 16 92.7 19 111.2 18.3C129.7 17.7 148.3 13.3 166.8 12C185.3 10.7 203.7 12.3 222.2 14.8C240.7 17.3 259.3 20.7 277.8 21.2C296.3 21.7 314.7 19.3 333.2 19.3C351.7 19.3 370.3 21.7 388.8 22.2C407.3 22.7 425.7 21.3 444.2 21.2C462.7 21 481.3 22 490.7 22.5L500 23L500 0L490.7 0C481.3 0 462.7 0 444.2 0C425.7 0 407.3 0 388.8 0C370.3 0 351.7 0 333.2 0C314.7 0 296.3 0 277.8 0C259.3 0 240.7 0 222.2 0C203.7 0 185.3 0 166.8 0C148.3 0 129.7 0 111.2 0C92.7 0 74.3 0 55.8 0C37.3 0 18.7 0 9.3 0L0 0Z" fill="#2ac4ce" stroke-linecap="round" stroke-linejoin="miter"></path></svg>