<svg id="visual" viewBox="0 0 500 50" width="500" height="50" xmlns="http://www.w3.org/2000/svg" xmlns:xlink="http://www.w3.org/1999/xlink" version="1.1"><path d="M0 28L9.3 29.2C18.7 30.3 37.3 32.7 55.8 32.3C74.3 32 92.7 29 111.2 29.7C129.7 30.3 148.3 34.7 166.8 36C185.3 37.3 203.7 35.7 222.2 33.2C240.7 30.7 259.3 27.3 277.8 26.8C296.3 26.3 314.7 28.7 333.2 28.7C351.7 28.7 370.3 26.3 388.8 25.8C407.3 25.3 425.7 26.7 444.2 26.8C462.7 27 481.3 26 490.7 25.5L500 25L500 51L490.7 51C481.3 51 462.7 51 444.2 51C425.7 51 407.3 51 388.8 51C370.3 51 351.7 51 333.2 51C314.7 51 296.3 51 277.8 51C259.3 51 240.7 51 222.2 51C203.7 51 185.3 51 166.8 51C148.3 51 129.7 51 111.2 51C92.7 51 74.3 51 55.8 51C37.3 51 18.7 51 9.3 51L0 51Z" fill="#2ac4ce" stroke-linecap="round" stroke-linejoin="miter"></path></svg>