<svg id="visual" viewBox="0 0 500 50" width="500" height="50" xmlns="http://www.w3.org/2000/svg" xmlns:xlink="http://www.w3.org/1999/xlink" version="1.1"><path d="M0 34L10.5 33.8C21 33.7 42 33.3 62.8 33.7C83.7 34 104.3 35 125.2 34.7C146 34.3 167 32.7 187.8 33.5C208.7 34.3 229.3 37.7 250.2 39C271 40.3 292 39.7 312.8 39.3C333.7 39 354.3 39 375.2 37.5C396 36 417 33 437.8 31.3C458.7 29.7 479.3 29.3 489.7 29.2L500 29L500 51L489.7 51C479.3 51 458.7 51 437.8 51C417 51 396 51 375.2 51C354.3 51 333.7 51 312.8 51C292 51 271 51 250.2 51C229.3 51 208.7 51 187.8 51C167 51 146 51 125.2 51C104.3 51 83.7 51 62.8 51C42 51 21 51 10.5 51L0 51Z" fill="#3ee0eb" stroke-linecap="round" stroke-linejoin="miter"></path></svg>